# xmcd CD database file
#
# Track frame offsets:
#	150
#	18343
#	37873
#	56906
#	71237
#	85869
#	103711
#	117302
#	135072
#	150428
#
# Disc length: 2242 seconds
#
# Revision: 0
# Processed by: cddbd v1.5.1PL2 Copyright (c) Steve Scherf et al.
# Submitted via: CDex 1.51
#
DISCID=7708c00a
DTITLE=Pino Daniele - Un Uomo in Blues
DYEAR=1900
DGENRE=Blues
TTITLE0=O' Scarrafone
TTITLE1=Un Uomo In Blues
TTITLE2=Gente Distratta
TTITLE3=Che Soddisfazione
TTITLE4=Invece No
TTITLE5=Leave  A Message
TTITLE6=Domani
TTITLE7=Femmena
TTITLE8=For Your Love
TTITLE9=Solo
EXTD=
EXTT0=
EXTT1=
EXTT2=
EXTT3=
EXTT4=
EXTT5=
EXTT6=
EXTT7=
EXTT8=
EXTT9=
PLAYORDER=
